    <svg width="37" height="22" viewBox="0 0 37 22" fill="none" xmlns="http://www.w3.org/2000/svg">
<path d="M4.12311 1H16.6155V9.29268H1C1 7.15264 3.08207 2.87254 4.12311 1Z" stroke="white"/>
<path d="M4.12311 21H16.6155V12.7073H1C1 14.8474 3.08207 19.1275 4.12311 21Z" stroke="white"/>
<path d="M32.4199 1H19.9274V9.29268H35.543C35.543 7.15264 33.4609 2.87254 32.4199 1Z" stroke="white"/>
<path d="M32.4199 21H19.9274V12.7073H35.543C35.543 14.8474 33.4609 19.1275 32.4199 21Z" stroke="white"/>
<path d="M35.0077 13.207C34.8852 14.1516 34.4583 15.4365 33.9101 16.7609C33.3245 18.1757 32.6309 19.5659 32.1242 20.4997H20.4277V16.1528C21.5579 15.4283 22.9551 14.4197 24.3934 13.207H35.0077Z" stroke="white"/>
<path d="M33.909 5.23702C34.4573 6.56122 34.8844 7.84653 35.0067 8.79268H28.836C29.7236 7.75551 30.5825 6.65773 31.281 5.52822C31.8801 4.55928 32.3715 3.55099 32.6579 2.52332C33.0631 3.32623 33.511 4.27583 33.909 5.23702Z" stroke="white"/>
</svg>
