<svg width="281" height="43" viewBox="0 0 281 43" fill="none" xmlns="http://www.w3.org/2000/svg">
<path fill-rule="evenodd" clip-rule="evenodd" d="M101.284 5.76828V36.1829H108.036V24.6463H136.604V16.7805L129.852 5.76828H101.284ZM142.837 5.76828V36.1829H149.589V5.76828H142.837ZM191.142 12.5854H166.21C164.998 12.935 162.574 16.0464 162.574 21.5C162.574 26.9536 164.998 29.0162 166.21 29.8902L191.142 30.4146V37.2317H162.574C158.835 35.1341 156.861 29.7155 156.341 27.2683V16.7805C156.341 12.1658 160.497 7.5162 162.574 5.76828H191.142V12.5854ZM244.641 5.76828V36.1829H251.393V24.6463H259.184L273.208 38.2805L277.883 33.561L269.053 24.6463H281V16.7805L274.767 5.76828H244.641ZM108.036 12.5854V17.8293H129.852L127.774 12.5854H108.036ZM251.393 17.8293V12.5854H273.011L275.286 17.8293H251.393ZM208.68 12.5854C207.166 14.5 206.222 16.661 205.857 18.878H231.484C231.119 16.661 230.175 14.5 228.661 12.5854H208.68ZM206.383 25.1707H230.958C230.17 27.4922 228.721 29.6752 226.638 31.4725L232.038 37.8502C236.726 33.8045 239.549 28.2437 239.924 22.3233C240.298 16.4028 238.399 10.8168 234.253 6.29267H203.088C198.942 10.8168 197.043 16.4028 197.417 22.3233C197.792 28.2437 200.615 33.8045 205.303 37.8502L210.703 31.4725C208.62 29.6752 207.171 27.4922 206.383 25.1707Z" fill="white"/>
<path d="M6.85619 0H34.281V17.8293H0C0 13.2282 4.5708 4.02596 6.85619 0Z" fill="#DB7200"/>
<path d="M6.85619 43H34.281V25.1707H0C0 29.7718 4.5708 38.974 6.85619 43Z" fill="#DB7200"/>
<path d="M68.9778 0H41.553V17.8293H75.834C75.834 13.2282 71.2632 4.02596 68.9778 0Z" fill="#DB7200"/>
<path d="M68.9778 43H41.553V25.1707H75.834C75.834 29.7718 71.2632 38.974 68.9778 43Z" fill="#DB7200"/>
<path d="M75.8337 25.1707C75.8337 29.7644 71.2629 38.9727 68.9775 43H41.5527V31.9878C44.1498 30.3936 47.5052 28.0444 50.954 25.1707H75.8337Z" fill="#A44603"/>
<path d="M75.8338 17.8293H58.6934C63.6589 12.3756 68.5725 6.13537 68.9776 0C71.263 4.02732 75.8338 13.2251 75.8338 17.8293Z" fill="#A44603"/>
</svg>
