<svg width="129" height="22" viewBox="0 0 129 22" fill="none" xmlns="http://www.w3.org/2000/svg">
<path d="M50.2125 11.9634H49.7125V12.4634V17.3293H47.6367V4.18293H59.8667L62.7254 8.94347V11.9634H50.2125ZM75.2451 4.18293H87.5683V6.35366H76.7116H76.6395L76.5703 6.37403C76.3051 6.45214 76.0579 6.64962 75.8508 6.87608C75.6331 7.11426 75.4181 7.43038 75.2281 7.81533C74.8472 8.58721 74.5554 9.65942 74.5554 11C74.5554 12.3438 74.8488 13.3048 75.2417 13.9968C75.6346 14.689 76.1092 15.0798 76.4151 15.3051L76.5426 15.3989L76.7008 15.4023L87.5683 15.6357V17.8171H75.1942C74.5121 17.3853 73.9542 16.6434 73.5289 15.8294C73.0984 15.0056 72.8321 14.1623 72.7162 13.6303V8.80488C72.7162 7.87008 73.1328 6.88976 73.7002 6.01626C74.2083 5.23415 74.809 4.58107 75.2451 4.18293ZM125.444 18.0937L119.415 12.1086L119.269 11.9634H119.063H115.514H115.014V12.4634V17.3293H112.938V4.18293H125.866L128.5 8.93419V11.9634H123.558H122.377L123.199 12.8116L126.884 16.6098L125.444 18.0937ZM50.2125 6.35366H49.7125V6.85366V9.29268V9.79268H50.2125H60.1497H61.0486L60.5744 9.02894L59.0601 6.58992L58.9134 6.35366H58.6353H50.2125ZM115.014 9.29268V9.79268H115.514H126.397H127.281L126.826 9.03514L125.36 6.59611L125.214 6.35366H124.932H115.514H115.014V6.85366V9.29268ZM96.0573 6.35366H95.8122L95.6621 6.54745C94.9218 7.503 94.4575 8.58582 94.2778 9.70097L94.1845 10.2805H94.7715H106.445H107.032L106.938 9.70097C106.759 8.58582 106.294 7.503 105.554 6.54745L105.404 6.35366H105.159H96.0573ZM95.011 12.2073H94.3179L94.5365 12.865C94.877 13.8896 95.4674 14.8557 96.2938 15.6811L94.471 17.8793C92.6593 16.1191 91.5777 13.8024 91.4259 11.352C91.268 8.80089 92.0408 6.39857 93.7363 4.42683H107.48C109.175 6.39857 109.948 8.80089 109.79 11.352C109.638 13.8024 108.557 16.1191 106.745 17.8793L104.922 15.6811C105.749 14.8557 106.339 13.8896 106.68 12.865L106.898 12.2073H106.205H95.011ZM66.5646 17.3293V4.18293H68.6404V17.3293H66.5646Z" stroke="white"/>
<path d="M4.12311 1H16.6155V9.29268H1C1 7.15264 3.08207 2.87254 4.12311 1Z" stroke="white"/>
<path d="M4.12311 21H16.6155V12.7073H1C1 14.8474 3.08207 19.1275 4.12311 21Z" stroke="white"/>
<path d="M32.4199 1H19.9274V9.29268H35.543C35.543 7.15264 33.4609 2.87254 32.4199 1Z" stroke="white"/>
<path d="M32.4199 21H19.9274V12.7073H35.543C35.543 14.8474 33.4609 19.1275 32.4199 21Z" stroke="white"/>
<path d="M35.0077 13.2073C34.8852 14.1519 34.4583 15.4368 33.9101 16.7612C33.3245 18.176 32.6309 19.5662 32.1242 20.5H20.4277V16.1531C21.5579 15.4286 22.9551 14.4199 24.3934 13.2073H35.0077Z" stroke="white"/>
<path d="M33.91 5.23702C34.4583 6.56122 34.8854 7.84653 35.0077 8.79268H28.837C29.7246 7.75551 30.5835 6.65773 31.2819 5.52822C31.8811 4.55928 32.3724 3.55099 32.6589 2.52332C33.0641 3.32623 33.512 4.27583 33.91 5.23702Z" stroke="white"/>
</svg>
