<svg width="64" height="64" viewBox="0 0 64 64" fill="none" xmlns="http://www.w3.org/2000/svg">
<path fill-rule="evenodd" clip-rule="evenodd" d="M31.9997 10.6665C34.2797 10.6665 36.6183 10.7252 38.885 10.8212L41.5623 10.9492L44.125 11.1012L46.525 11.2638L48.717 11.4345C51.0958 11.6166 53.3342 12.6317 55.0384 14.3013C56.7426 15.9709 57.8035 18.1879 58.0343 20.5625L58.141 21.6958L58.341 24.1225C58.5277 26.6372 58.6663 29.3785 58.6663 31.9998C58.6663 34.6212 58.5277 37.3625 58.341 39.8772L58.141 42.3038C58.1063 42.6932 58.0717 43.0692 58.0343 43.4372C57.8034 45.8122 56.7422 48.0296 55.0374 49.6992C53.3326 51.3688 51.0936 52.3837 48.7143 52.5652L46.5277 52.7332L44.1277 52.8985L41.5623 53.0505L38.885 53.1785C36.5912 53.2782 34.2956 53.3297 31.9997 53.3332C29.7037 53.3297 27.4081 53.2782 25.1143 53.1785L22.437 53.0505L19.8743 52.8985L17.4743 52.7332L15.2823 52.5652C12.9035 52.3831 10.6651 51.368 8.96093 49.6984C7.25672 48.0288 6.19587 45.8117 5.96501 43.4372L5.85834 42.3038L5.65834 39.8772C5.45444 37.2562 5.34593 34.6287 5.33301 31.9998C5.33301 29.3785 5.47167 26.6372 5.65834 24.1225L5.85834 21.6958C5.89301 21.3065 5.92767 20.9305 5.96501 20.5625C6.19578 18.1884 7.25625 15.9716 8.95992 14.3021C10.6636 12.6326 12.9014 11.6172 15.2797 11.4345L17.469 11.2638L19.869 11.1012L22.4343 10.9492L25.1117 10.8212C27.4063 10.7215 29.7028 10.67 31.9997 10.6665ZM26.6663 25.5332V38.4665C26.6663 39.6985 27.9997 40.4665 29.0663 39.8532L40.2663 33.3865C40.5101 33.2462 40.7125 33.0442 40.8532 32.8007C40.994 32.5573 41.0681 32.281 41.0681 31.9998C41.0681 31.7186 40.994 31.4424 40.8532 31.1989C40.7125 30.9555 40.5101 30.7535 40.2663 30.6132L29.0663 24.1492C28.823 24.0087 28.547 23.9348 28.2661 23.9348C27.9851 23.9349 27.7092 24.0089 27.4659 24.1494C27.2226 24.29 27.0207 24.4921 26.8803 24.7355C26.74 24.9789 26.6662 25.2549 26.6663 25.5358V25.5332Z" fill="#DB7200"/>
</svg>
